<svg width="277" height="48" viewBox="0 0 277 48" fill="none" xmlns="http://www.w3.org/2000/svg">
<mask id="path-1-inside-1_9_2702" fill="white">
<path fill-rule="evenodd" clip-rule="evenodd" d="M2.89198 0.805908H271.02L274.309 10.4419L272.964 24.9942L277 32.8603L275.655 47.8059H3.78893L2.89198 36.5967L6.03131 24.9942H1.69604L0.500107 14.1783L2.89198 4.73896V0.805908Z"/>
</mask>
<path fill-rule="evenodd" clip-rule="evenodd" d="M2.89198 0.805908H271.02L274.309 10.4419L272.964 24.9942L277 32.8603L275.655 47.8059H3.78893L2.89198 36.5967L6.03131 24.9942H1.69604L0.500107 14.1783L2.89198 4.73896V0.805908Z" fill="#010103"/>
<path d="M271.02 0.805908L271.494 0.644403L271.378 0.305908H271.02V0.805908ZM2.89198 0.805908V0.305908H2.39198V0.805908H2.89198ZM274.309 10.4419L274.807 10.4879L274.817 10.3815L274.782 10.2804L274.309 10.4419ZM272.964 24.9942L272.466 24.9482L272.453 25.093L272.519 25.2225L272.964 24.9942ZM277 32.8603L277.498 32.9051L277.511 32.7609L277.445 32.632L277 32.8603ZM275.655 47.8059V48.3059H276.112L276.153 47.8507L275.655 47.8059ZM3.78893 47.8059L3.29052 47.8458L3.32734 48.3059H3.78893V47.8059ZM2.89198 36.5967L2.40933 36.4661L2.38664 36.55L2.39357 36.6366L2.89198 36.5967ZM6.03131 24.9942L6.51395 25.1248L6.68457 24.4942H6.03131V24.9942ZM1.69604 24.9942L1.19907 25.0491L1.24828 25.4942H1.69604V24.9942ZM0.500107 14.1783L0.0154251 14.0555L-0.00681543 14.1432L0.00313559 14.2332L0.500107 14.1783ZM2.89198 4.73896L3.37666 4.86178L3.39198 4.80133V4.73896H2.89198ZM271.02 0.305908H269.049V1.30591H271.02V0.305908ZM265.106 0.305908H261.163V1.30591H265.106V0.305908ZM257.22 0.305908H253.277V1.30591H257.22V0.305908ZM249.334 0.305908H245.391V1.30591H249.334V0.305908ZM241.447 0.305908H237.504V1.30591H241.447V0.305908ZM233.561 0.305908H229.618V1.30591H233.561V0.305908ZM225.675 0.305908H221.732V1.30591H225.675V0.305908ZM217.789 0.305908H213.846V1.30591H217.789V0.305908ZM209.903 0.305908H205.96V1.30591H209.903V0.305908ZM202.017 0.305908H198.074V1.30591H202.017V0.305908ZM194.131 0.305908H190.188V1.30591H194.131V0.305908ZM186.245 0.305908H182.301V1.30591H186.245V0.305908ZM178.358 0.305908H174.415V1.30591H178.358V0.305908ZM170.472 0.305908H166.529V1.30591H170.472V0.305908ZM162.586 0.305908H158.643V1.30591H162.586V0.305908ZM154.7 0.305908H150.757V1.30591H154.7V0.305908ZM146.814 0.305908H142.871V1.30591H146.814V0.305908ZM138.928 0.305908H134.985V1.30591H138.928V0.305908ZM131.042 0.305908H127.099V1.30591H131.042V0.305908ZM123.156 0.305908H119.212V1.30591H123.156V0.305908ZM115.269 0.305908H111.326V1.30591H115.269V0.305908ZM107.383 0.305908H103.44V1.30591H107.383V0.305908ZM99.4971 0.305908H95.554V1.30591H99.4971V0.305908ZM91.611 0.305908H87.6679V1.30591H91.611V0.305908ZM83.7248 0.305908H79.7817V1.30591H83.7248V0.305908ZM75.8387 0.305908H71.8956V1.30591H75.8387V0.305908ZM67.9525 0.305908H64.0095V1.30591H67.9525V0.305908ZM60.0664 0.305908H56.1233V1.30591H60.0664V0.305908ZM52.1803 0.305908H48.2372V1.30591H52.1803V0.305908ZM44.2941 0.305908H40.3511V1.30591H44.2941V0.305908ZM36.408 0.305908H32.4649V1.30591H36.408V0.305908ZM28.5218 0.305908H24.5788V1.30591H28.5218V0.305908ZM20.6357 0.305908H16.6926V1.30591H20.6357V0.305908ZM12.7496 0.305908H8.80653V1.30591H12.7496V0.305908ZM4.86348 0.305908H2.89198V1.30591H4.86348V0.305908ZM2.39198 0.805908V1.78917H3.39198V0.805908H2.39198ZM2.39198 3.7557V4.73896H3.39198V3.7557H2.39198ZM2.4073 4.61615L1.80933 6.97598L2.77869 7.22161L3.37666 4.86178L2.4073 4.61615ZM0.613393 11.6956L0.0154251 14.0555L0.984789 14.3011L1.58276 11.9413L0.613393 11.6956ZM0.00313559 14.2332L0.302119 16.9372L1.29606 16.8273L0.997078 14.1233L0.00313559 14.2332ZM0.900087 22.3452L1.19907 25.0491L2.19301 24.9392L1.89403 22.2353L0.900087 22.3452ZM1.69604 25.4942H2.77986V24.4942H1.69604V25.4942ZM4.94749 25.4942H6.03131V24.4942H4.94749V25.4942ZM5.54866 24.8636L5.15625 26.3139L6.12154 26.5751L6.51395 25.1248L5.54866 24.8636ZM4.37141 29.2145L3.58658 32.1152L4.55187 32.3764L5.3367 29.4757L4.37141 29.2145ZM2.80175 35.0158L2.40933 36.4661L3.37462 36.7273L3.76704 35.277L2.80175 35.0158ZM2.39357 36.6366L2.61781 39.4389L3.61462 39.3591L3.39038 36.5568L2.39357 36.6366ZM3.06628 45.0435L3.29052 47.8458L4.28734 47.766L4.0631 44.9637L3.06628 45.0435ZM3.78893 48.3059H5.78794V47.3059H3.78893V48.3059ZM9.78597 48.3059H13.784V47.3059H9.78597V48.3059ZM17.782 48.3059H21.78V47.3059H17.782V48.3059ZM25.7781 48.3059H29.7761V47.3059H25.7781V48.3059ZM33.7741 48.3059H37.7721V47.3059H33.7741V48.3059ZM41.7702 48.3059H45.7682V47.3059H41.7702V48.3059ZM49.7662 48.3059H53.7642V47.3059H49.7662V48.3059ZM57.7623 48.3059H61.7603V47.3059H57.7623V48.3059ZM65.7583 48.3059H69.7563V47.3059H65.7583V48.3059ZM73.7544 48.3059H77.7524V47.3059H73.7544V48.3059ZM81.7504 48.3059H85.7484V47.3059H81.7504V48.3059ZM89.7465 48.3059H93.7445V47.3059H89.7465V48.3059ZM97.7425 48.3059H101.741V47.3059H97.7425V48.3059ZM105.739 48.3059H109.737V47.3059H105.739V48.3059ZM113.735 48.3059H117.733V47.3059H113.735V48.3059ZM121.731 48.3059H125.729V47.3059H121.731V48.3059ZM129.727 48.3059H133.725V47.3059H129.727V48.3059ZM137.723 48.3059H141.721V47.3059H137.723V48.3059ZM145.719 48.3059H149.717V47.3059H145.719V48.3059ZM153.715 48.3059H157.713V47.3059H153.715V48.3059ZM161.711 48.3059H165.709V47.3059H161.711V48.3059ZM169.707 48.3059H173.705V47.3059H169.707V48.3059ZM177.703 48.3059H181.701V47.3059H177.703V48.3059ZM185.699 48.3059H189.697V47.3059H185.699V48.3059ZM193.695 48.3059H197.693V47.3059H193.695V48.3059ZM201.691 48.3059H205.689V47.3059H201.691V48.3059ZM209.687 48.3059H213.685V47.3059H209.687V48.3059ZM217.683 48.3059H221.681V47.3059H217.683V48.3059ZM225.679 48.3059H229.677V47.3059H225.679V48.3059ZM233.676 48.3059H237.674V47.3059H233.676V48.3059ZM241.672 48.3059H245.67V47.3059H241.672V48.3059ZM249.668 48.3059H253.666V47.3059H249.668V48.3059ZM257.664 48.3059H261.662V47.3059H257.664V48.3059ZM265.66 48.3059H269.658V47.3059H265.66V48.3059ZM273.656 48.3059H275.655V47.3059H273.656V48.3059ZM276.153 47.8507L276.321 45.9825L275.325 45.8929L275.157 47.7611L276.153 47.8507ZM276.657 42.2461L276.994 38.5097L275.998 38.4201L275.661 42.1565L276.657 42.2461ZM277.33 34.7733L277.498 32.9051L276.502 32.8155L276.334 34.6837L277.33 34.7733ZM277.445 32.632L276.436 30.6655L275.546 31.122L276.555 33.0886L277.445 32.632ZM274.418 26.7325L273.409 24.7659L272.519 25.2225L273.528 27.189L274.418 26.7325ZM273.462 25.0402L273.63 23.2212L272.634 23.1291L272.466 24.9482L273.462 25.0402ZM273.966 19.5831L274.303 15.945L273.307 15.853L272.97 19.491L273.966 19.5831ZM274.639 12.307L274.807 10.4879L273.811 10.3959L273.643 12.2149L274.639 12.307ZM274.782 10.2804L273.96 7.87139L273.014 8.1944L273.836 10.6034L274.782 10.2804ZM272.316 3.0534L271.494 0.644403L270.547 0.967413L271.369 3.37641L272.316 3.0534ZM271.02 0.805908L271.967 0.482898L271.736 -0.194092H271.02V0.805908ZM2.89198 0.805908V-0.194092H1.89198V0.805908H2.89198ZM274.309 10.4419L275.305 10.534L275.325 10.3211L275.256 10.1189L274.309 10.4419ZM272.964 24.9942L271.968 24.9021L271.941 25.1919L272.074 25.4507L272.964 24.9942ZM277 32.8603L277.996 32.95L278.022 32.6615L277.89 32.4038L277 32.8603ZM275.655 47.8059V48.8059H276.569L276.651 47.8956L275.655 47.8059ZM3.78893 47.8059L2.79212 47.8857L2.86575 48.8059H3.78893V47.8059ZM2.89198 36.5967L1.92669 36.3355L1.8813 36.5033L1.89516 36.6765L2.89198 36.5967ZM6.03131 24.9942L6.9966 25.2554L7.33784 23.9942H6.03131V24.9942ZM1.69604 24.9942L0.7021 25.1041L0.80052 25.9942H1.69604V24.9942ZM0.500107 14.1783L-0.469257 13.9327L-0.513738 14.1082L-0.493836 14.2882L0.500107 14.1783ZM2.89198 4.73896L3.86134 4.98459L3.89198 4.86369V4.73896H2.89198ZM271.02 -0.194092H269.049V1.80591H271.02V-0.194092ZM265.106 -0.194092H261.163V1.80591H265.106V-0.194092ZM257.22 -0.194092H253.277V1.80591H257.22V-0.194092ZM249.334 -0.194092H245.391V1.80591H249.334V-0.194092ZM241.447 -0.194092H237.504V1.80591H241.447V-0.194092ZM233.561 -0.194092H229.618V1.80591H233.561V-0.194092ZM225.675 -0.194092H221.732V1.80591H225.675V-0.194092ZM217.789 -0.194092H213.846V1.80591H217.789V-0.194092ZM209.903 -0.194092H205.96V1.80591H209.903V-0.194092ZM202.017 -0.194092H198.074V1.80591H202.017V-0.194092ZM194.131 -0.194092H190.188V1.80591H194.131V-0.194092ZM186.245 -0.194092H182.301V1.80591H186.245V-0.194092ZM178.358 -0.194092H174.415V1.80591H178.358V-0.194092ZM170.472 -0.194092H166.529V1.80591H170.472V-0.194092ZM162.586 -0.194092H158.643V1.80591H162.586V-0.194092ZM154.7 -0.194092H150.757V1.80591H154.7V-0.194092ZM146.814 -0.194092H142.871V1.80591H146.814V-0.194092ZM138.928 -0.194092H134.985V1.80591H138.928V-0.194092ZM131.042 -0.194092H127.099V1.80591H131.042V-0.194092ZM123.156 -0.194092H119.212V1.80591H123.156V-0.194092ZM115.269 -0.194092H111.326V1.80591H115.269V-0.194092ZM107.383 -0.194092H103.44V1.80591H107.383V-0.194092ZM99.4971 -0.194092H95.554V1.80591H99.4971V-0.194092ZM91.611 -0.194092H87.6679V1.80591H91.611V-0.194092ZM83.7248 -0.194092H79.7817V1.80591H83.7248V-0.194092ZM75.8387 -0.194092H71.8956V1.80591H75.8387V-0.194092ZM67.9525 -0.194092H64.0095V1.80591H67.9525V-0.194092ZM60.0664 -0.194092H56.1233V1.80591H60.0664V-0.194092ZM52.1803 -0.194092H48.2372V1.80591H52.1803V-0.194092ZM44.2941 -0.194092H40.3511V1.80591H44.2941V-0.194092ZM36.408 -0.194092H32.4649V1.80591H36.408V-0.194092ZM28.5218 -0.194092H24.5788V1.80591H28.5218V-0.194092ZM20.6357 -0.194092H16.6926V1.80591H20.6357V-0.194092ZM12.7496 -0.194092H8.80653V1.80591H12.7496V-0.194092ZM4.86348 -0.194092H2.89198V1.80591H4.86348V-0.194092ZM1.89198 0.805908V1.78917H3.89198V0.805908H1.89198ZM1.89198 3.7557V4.73896H3.89198V3.7557H1.89198ZM1.92261 4.49333L1.32465 6.85316L3.26337 7.34443L3.86134 4.98459L1.92261 4.49333ZM0.128711 11.5728L-0.469257 13.9327L1.46947 14.4239L2.06744 12.0641L0.128711 11.5728ZM-0.493836 14.2882L-0.194852 16.9922L1.79303 16.7724L1.49405 14.0684L-0.493836 14.2882ZM0.403116 22.4001L0.7021 25.1041L2.68998 24.8843L2.391 22.1803L0.403116 22.4001ZM1.69604 25.9942H2.77986V23.9942H1.69604V25.9942ZM4.94749 25.9942H6.03131V23.9942H4.94749V25.9942ZM5.06602 24.733L4.6736 26.1833L6.60418 26.7057L6.9966 25.2554L5.06602 24.733ZM3.88877 29.084L3.10394 31.9846L5.03452 32.5069L5.81935 29.6063L3.88877 29.084ZM2.3191 34.8852L1.92669 36.3355L3.85727 36.8579L4.24968 35.4076L2.3191 34.8852ZM1.89516 36.6765L2.1194 39.4788L4.11303 39.3192L3.88879 36.5169L1.89516 36.6765ZM2.56788 45.0834L2.79212 47.8857L4.78574 47.7261L4.56151 44.9238L2.56788 45.0834ZM3.78893 48.8059H5.78794V46.8059H3.78893V48.8059ZM9.78597 48.8059H13.784V46.8059H9.78597V48.8059ZM17.782 48.8059H21.78V46.8059H17.782V48.8059ZM25.7781 48.8059H29.7761V46.8059H25.7781V48.8059ZM33.7741 48.8059H37.7721V46.8059H33.7741V48.8059ZM41.7702 48.8059H45.7682V46.8059H41.7702V48.8059ZM49.7662 48.8059H53.7642V46.8059H49.7662V48.8059ZM57.7623 48.8059H61.7603V46.8059H57.7623V48.8059ZM65.7583 48.8059H69.7563V46.8059H65.7583V48.8059ZM73.7544 48.8059H77.7524V46.8059H73.7544V48.8059ZM81.7504 48.8059H85.7484V46.8059H81.7504V48.8059ZM89.7465 48.8059H93.7445V46.8059H89.7465V48.8059ZM97.7425 48.8059H101.741V46.8059H97.7425V48.8059ZM105.739 48.8059H109.737V46.8059H105.739V48.8059ZM113.735 48.8059H117.733V46.8059H113.735V48.8059ZM121.731 48.8059H125.729V46.8059H121.731V48.8059ZM129.727 48.8059H133.725V46.8059H129.727V48.8059ZM137.723 48.8059H141.721V46.8059H137.723V48.8059ZM145.719 48.8059H149.717V46.8059H145.719V48.8059ZM153.715 48.8059H157.713V46.8059H153.715V48.8059ZM161.711 48.8059H165.709V46.8059H161.711V48.8059ZM169.707 48.8059H173.705V46.8059H169.707V48.8059ZM177.703 48.8059H181.701V46.8059H177.703V48.8059ZM185.699 48.8059H189.697V46.8059H185.699V48.8059ZM193.695 48.8059H197.693V46.8059H193.695V48.8059ZM201.691 48.8059H205.689V46.8059H201.691V48.8059ZM209.687 48.8059H213.685V46.8059H209.687V48.8059ZM217.683 48.8059H221.681V46.8059H217.683V48.8059ZM225.679 48.8059H229.677V46.8059H225.679V48.8059ZM233.676 48.8059H237.674V46.8059H233.676V48.8059ZM241.672 48.8059H245.67V46.8059H241.672V48.8059ZM249.668 48.8059H253.666V46.8059H249.668V48.8059ZM257.664 48.8059H261.662V46.8059H257.664V48.8059ZM265.66 48.8059H269.658V46.8059H265.66V48.8059ZM273.656 48.8059H275.655V46.8059H273.656V48.8059ZM276.651 47.8956L276.819 46.0274L274.827 45.848L274.659 47.7162L276.651 47.8956ZM277.155 42.291L277.492 38.5546L275.5 38.3752L275.163 42.1116L277.155 42.291ZM277.828 34.8182L277.996 32.95L276.004 32.7706L275.836 34.6388L277.828 34.8182ZM277.89 32.4038L276.881 30.4372L275.101 31.3503L276.11 33.3168L277.89 32.4038ZM274.863 26.5042L273.854 24.5377L272.074 25.4507L273.083 27.4172L274.863 26.5042ZM273.96 25.0863L274.128 23.2672L272.136 23.0831L271.968 24.9021L273.96 25.0863ZM274.464 19.6291L274.8 15.9911L272.809 15.8069L272.473 19.445L274.464 19.6291ZM275.137 12.353L275.305 10.534L273.313 10.3498L273.145 12.1689L275.137 12.353ZM275.256 10.1189L274.433 7.70988L272.541 8.35591L273.363 10.7649L275.256 10.1189ZM272.789 2.89189L271.967 0.482898L270.074 1.12892L270.896 3.53791L272.789 2.89189Z" fill="#02D0CE" fill-opacity="0.26" mask="url(#path-1-inside-1_9_2702)"/>
</svg>
