<svg width="276" height="343" viewBox="0 0 276 343" fill="none" xmlns="http://www.w3.org/2000/svg">
<mask id="path-1-inside-1_14_2155" fill="white">
<path fill-rule="evenodd" clip-rule="evenodd" d="M221.5 1.5L226 11.5L221.5 17L231 26.5L226.875 17.875L232.875 11.5L228.75 1.5L228.094 0.455933H265.255C270.778 0.455933 275.255 4.93308 275.255 10.4559V262.134V304.521C275.255 309.206 272.002 313.263 267.428 314.282L263.948 315.057L264.165 314.604L263.186 314.159L254.289 307.749L255.436 300.736L242.459 297.258L250.344 302.665L248.335 311.186L255.739 316.885L140.174 342.62C138.742 342.938 137.258 342.938 135.826 342.62L8.57149 314.282C3.99819 313.263 0.745117 309.206 0.745117 304.521V262.134V186.291L0.805374 186.218L9.29995 179.283L15.7772 182.206L22.4947 170.571L15.2313 176.788L7.52057 172.642L0.745117 177.825V10.4559C0.745117 4.93308 5.22227 0.455933 10.7451 0.455933H221.123L220.875 0.625L221.5 1.5Z"/>
</mask>
<path fill-rule="evenodd" clip-rule="evenodd" d="M221.5 1.5L226 11.5L221.5 17L231 26.5L226.875 17.875L232.875 11.5L228.75 1.5L228.094 0.455933H265.255C270.778 0.455933 275.255 4.93308 275.255 10.4559V262.134V304.521C275.255 309.206 272.002 313.263 267.428 314.282L263.948 315.057L264.165 314.604L263.186 314.159L254.289 307.749L255.436 300.736L242.459 297.258L250.344 302.665L248.335 311.186L255.739 316.885L140.174 342.62C138.742 342.938 137.258 342.938 135.826 342.62L8.57149 314.282C3.99819 313.263 0.745117 309.206 0.745117 304.521V262.134V186.291L0.805374 186.218L9.29995 179.283L15.7772 182.206L22.4947 170.571L15.2313 176.788L7.52057 172.642L0.745117 177.825V10.4559C0.745117 4.93308 5.22227 0.455933 10.7451 0.455933H221.123L220.875 0.625L221.5 1.5Z" fill="#02D0CE" fill-opacity="0.06"/>
<path d="M226 11.5L226.774 12.1332L227.166 11.6541L226.912 11.0896L226 11.5ZM221.5 1.5L222.412 1.08964L222.371 0.999337L222.314 0.918762L221.5 1.5ZM221.5 17L220.726 16.3668L220.153 17.0672L220.793 17.7071L221.5 17ZM231 26.5L230.293 27.2071L231.902 26.0685L231 26.5ZM226.875 17.875L226.147 17.1896L225.677 17.6885L225.973 18.3065L226.875 17.875ZM232.875 11.5L233.603 12.1854L234.046 11.7153L233.799 11.1187L232.875 11.5ZM228.75 1.5L229.674 1.11867L229.642 1.03994L229.597 0.967832L228.75 1.5ZM228.094 0.455933V-0.544067H226.284L227.247 0.988101L228.094 0.455933ZM267.428 314.282L267.646 315.258L267.428 314.282ZM263.948 315.057L263.046 314.624L262.154 316.481L264.165 316.033L263.948 315.057ZM264.165 314.604L265.066 315.038L265.509 314.117L264.579 313.694L264.165 314.604ZM263.186 314.159L262.602 314.97L262.682 315.028L262.772 315.069L263.186 314.159ZM254.289 307.749L253.302 307.587L253.202 308.198L253.705 308.56L254.289 307.749ZM255.436 300.736L256.423 300.897L256.569 300.004L255.695 299.77L255.436 300.736ZM242.459 297.258L242.718 296.293L241.893 298.083L242.459 297.258ZM250.344 302.665L251.317 302.895L251.474 302.228L250.909 301.841L250.344 302.665ZM248.335 311.186L247.362 310.957L247.214 311.585L247.725 311.979L248.335 311.186ZM255.739 316.885L255.956 317.861L258.043 317.396L256.349 316.092L255.739 316.885ZM140.174 342.62L140.391 343.596L140.174 342.62ZM135.826 342.62L135.609 343.596L135.826 342.62ZM8.57149 314.282L8.78885 313.306H8.78885L8.57149 314.282ZM0.745117 186.291L-0.0269275 185.655L-0.254883 185.932V186.291H0.745117ZM0.805374 186.218L0.17297 185.443L0.0962644 185.506L0.0333298 185.582L0.805374 186.218ZM9.29995 179.283L9.71129 178.371L9.14706 178.117L8.66754 178.508L9.29995 179.283ZM15.7772 182.206L15.3659 183.117L16.1908 183.49L16.6433 182.706L15.7772 182.206ZM22.4947 170.571L23.3608 171.071L21.8445 169.811L22.4947 170.571ZM15.2313 176.788L14.7577 177.668L15.3611 177.993L15.8815 177.547L15.2313 176.788ZM7.52057 172.642L7.99411 171.761L7.42561 171.456L6.91297 171.848L7.52057 172.642ZM0.745117 177.825H-0.254883V179.849L1.35272 178.62L0.745117 177.825ZM221.123 0.455933L221.687 1.28173L224.36 -0.544067H221.123V0.455933ZM220.875 0.625L220.311 -0.200796L219.468 0.37518L220.061 1.20624L220.875 0.625ZM226.912 11.0896L222.412 1.08964L220.588 1.91036L225.088 11.9104L226.912 11.0896ZM222.274 17.6332L226.774 12.1332L225.226 10.8668L220.726 16.3668L222.274 17.6332ZM231.707 25.7929L222.207 16.2929L220.793 17.7071L230.293 27.2071L231.707 25.7929ZM225.973 18.3065L230.098 26.9315L231.902 26.0685L227.777 17.4435L225.973 18.3065ZM232.147 10.8146L226.147 17.1896L227.603 18.5604L233.603 12.1854L232.147 10.8146ZM227.826 1.88133L231.951 11.8813L233.799 11.1187L229.674 1.11867L227.826 1.88133ZM227.247 0.988101L227.903 2.03217L229.597 0.967832L228.94 -0.0762357L227.247 0.988101ZM265.255 -0.544067H228.094V1.45593H265.255V-0.544067ZM276.255 10.4559C276.255 4.3808 271.33 -0.544067 265.255 -0.544067V1.45593C270.225 1.45593 274.255 5.48537 274.255 10.4559H276.255ZM276.255 262.134V10.4559H274.255V262.134H276.255ZM276.255 304.521V262.134H274.255V304.521H276.255ZM267.646 315.258C272.676 314.138 276.255 309.675 276.255 304.521H274.255C274.255 308.738 271.327 312.389 267.211 313.306L267.646 315.258ZM264.165 316.033L267.646 315.258L267.211 313.306L263.73 314.081L264.165 316.033ZM263.264 314.171L263.046 314.624L264.849 315.49L265.066 315.038L263.264 314.171ZM262.772 315.069L263.751 315.515L264.579 313.694L263.6 313.249L262.772 315.069ZM253.705 308.56L262.602 314.97L263.771 313.348L254.874 306.937L253.705 308.56ZM254.449 300.574L253.302 307.587L255.276 307.91L256.423 300.897L254.449 300.574ZM242.2 298.224L255.177 301.702L255.695 299.77L242.718 296.293L242.2 298.224ZM250.909 301.841L243.025 296.434L241.893 298.083L249.778 303.49L250.909 301.841ZM249.309 311.416L251.317 302.895L249.371 302.436L247.362 310.957L249.309 311.416ZM256.349 316.092L248.945 310.394L247.725 311.979L255.129 317.677L256.349 316.092ZM140.391 343.596L255.956 317.861L255.522 315.909L139.956 341.644L140.391 343.596ZM135.609 343.596C137.184 343.946 138.816 343.946 140.391 343.596L139.956 341.644C138.668 341.93 137.332 341.93 136.044 341.644L135.609 343.596ZM8.35413 315.258L135.609 343.596L136.044 341.644L8.78885 313.306L8.35413 315.258ZM-0.254883 304.521C-0.254883 309.675 3.32349 314.138 8.35413 315.258L8.78885 313.306C4.67288 312.389 1.74512 308.738 1.74512 304.521H-0.254883ZM-0.254883 262.134V304.521H1.74512V262.134H-0.254883ZM-0.254883 186.291V262.134H1.74512V186.291H-0.254883ZM0.0333298 185.582L-0.0269275 185.655L1.51716 186.926L1.57742 186.853L0.0333298 185.582ZM8.66754 178.508L0.17297 185.443L1.43778 186.992L9.93235 180.057L8.66754 178.508ZM16.1886 181.295L9.71129 178.371L8.8886 180.194L15.3659 183.117L16.1886 181.295ZM21.6287 170.071L14.9112 181.706L16.6433 182.706L23.3608 171.071L21.6287 170.071ZM15.8815 177.547L23.145 171.331L21.8445 169.811L14.581 176.028L15.8815 177.547ZM7.04703 173.523L14.7577 177.668L15.7048 175.907L7.99411 171.761L7.04703 173.523ZM1.35272 178.62L8.12817 173.436L6.91297 171.848L0.137518 177.031L1.35272 178.62ZM-0.254883 10.4559V177.825H1.74512V10.4559H-0.254883ZM10.7451 -0.544067C4.66999 -0.544067 -0.254883 4.3808 -0.254883 10.4559H1.74512C1.74512 5.48537 5.77456 1.45593 10.7451 1.45593V-0.544067ZM221.123 -0.544067H10.7451V1.45593H221.123V-0.544067ZM221.439 1.4508L221.687 1.28173L220.559 -0.369864L220.311 -0.200796L221.439 1.4508ZM222.314 0.918762L221.689 0.0437618L220.061 1.20624L220.686 2.08124L222.314 0.918762Z" fill="#02D0CE" fill-opacity="0.1" mask="url(#path-1-inside-1_14_2155)"/>
</svg>
