<svg width="152" height="42" viewBox="0 0 152 42" fill="none" xmlns="http://www.w3.org/2000/svg">
<mask id="path-1-inside-1_14_1940" fill="white">
<path fill-rule="evenodd" clip-rule="evenodd" d="M2.48581 2.16699C3.99123 1.25949 5.75522 0.737427 7.64114 0.737427H143C143.726 0.737427 144.435 0.814973 145.118 0.962243L148.36 9.14328L146.997 21.8378L151.085 28.6998L150.023 38.8555C148.218 40.6375 145.737 41.7374 143 41.7374H7.64114C6.08654 41.7374 4.61479 41.3827 3.30243 40.7497L2.48581 31.9592L5.66512 21.8378H1.27464L0.0634766 12.4027L2.48581 4.16839V2.16699Z"/>
</mask>
<path fill-rule="evenodd" clip-rule="evenodd" d="M2.48581 2.16699C3.99123 1.25949 5.75522 0.737427 7.64114 0.737427H143C143.726 0.737427 144.435 0.814973 145.118 0.962243L148.36 9.14328L146.997 21.8378L151.085 28.6998L150.023 38.8555C148.218 40.6375 145.737 41.7374 143 41.7374H7.64114C6.08654 41.7374 4.61479 41.3827 3.30243 40.7497L2.48581 31.9592L5.66512 21.8378H1.27464L0.0634766 12.4027L2.48581 4.16839V2.16699Z" fill="#02D0CE" fill-opacity="0.06"/>
<path d="M2.48581 2.16699L1.96954 1.31056L1.48581 1.60216V2.16699H2.48581ZM145.118 0.962243L146.048 0.593871L145.851 0.09733L145.329 -0.0152781L145.118 0.962243ZM148.36 9.14328L149.354 9.25001L149.38 9.00448L149.289 8.77491L148.36 9.14328ZM146.997 21.8378L146.003 21.7311L145.967 22.0629L146.138 22.3496L146.997 21.8378ZM151.085 28.6998L152.079 28.8037L152.114 28.4734L151.944 28.188L151.085 28.6998ZM150.023 38.8555L150.726 39.5673L150.981 39.3157L151.018 38.9594L150.023 38.8555ZM3.30243 40.7497L2.30672 40.8422L2.35899 41.4049L2.86801 41.6504L3.30243 40.7497ZM2.48581 31.9592L1.53177 31.6595L1.47149 31.8514L1.4901 32.0517L2.48581 31.9592ZM5.66512 21.8378L6.61916 22.1375L7.02742 20.8378H5.66512V21.8378ZM1.27464 21.8378L0.282782 21.9652L0.394805 22.8378H1.27464V21.8378ZM0.0634766 12.4027L-0.895874 12.1205L-0.955109 12.3218L-0.928385 12.53L0.0634766 12.4027ZM2.48581 4.16839L3.44516 4.45061L3.48581 4.31243V4.16839H2.48581ZM7.64114 -0.262573C5.56823 -0.262573 3.62641 0.31177 1.96954 1.31056L3.00208 3.02341C4.35605 2.20721 5.94221 1.73743 7.64114 1.73743V-0.262573ZM143 -0.262573H7.64114V1.73743H143V-0.262573ZM145.329 -0.0152781C144.577 -0.177398 143.798 -0.262573 143 -0.262573V1.73743C143.655 1.73743 144.293 1.80734 144.907 1.93976L145.329 -0.0152781ZM149.289 8.77491L146.048 0.593871L144.188 1.33062L147.43 9.51166L149.289 8.77491ZM147.991 21.9446L149.354 9.25001L147.365 9.03656L146.003 21.7311L147.991 21.9446ZM151.944 28.188L147.856 21.3261L146.138 22.3496L150.226 29.2116L151.944 28.188ZM151.018 38.9594L152.079 28.8037L150.09 28.5958L149.029 38.7515L151.018 38.9594ZM143 42.7374C146.01 42.7374 148.74 41.5264 150.726 39.5673L149.321 38.1437C147.695 39.7486 145.464 40.7374 143 40.7374V42.7374ZM7.64114 42.7374H143V40.7374H7.64114V42.7374ZM2.86801 41.6504C4.31295 42.3473 5.9329 42.7374 7.64114 42.7374V40.7374C6.24018 40.7374 4.91664 40.418 3.73685 39.849L2.86801 41.6504ZM4.29814 40.6572L3.48152 31.8667L1.4901 32.0517L2.30672 40.8422L4.29814 40.6572ZM3.43985 32.2589L6.61916 22.1375L4.71108 21.5382L1.53177 31.6595L3.43985 32.2589ZM5.66512 20.8378H1.27464V22.8378H5.66512V20.8378ZM2.2665 21.7105L1.05534 12.2754L-0.928385 12.53L0.282782 21.9652L2.2665 21.7105ZM1.02283 12.6849L3.44516 4.45061L1.52646 3.88617L-0.895874 12.1205L1.02283 12.6849ZM3.48581 4.16839V2.16699H1.48581V4.16839H3.48581Z" fill="#02D0CE" fill-opacity="0.1" mask="url(#path-1-inside-1_14_1940)"/>
</svg>
